HIERARCHY
ROOT joint_Root
{
	OFFSET 0.0 0.0 0.0
	CHANNELS 6 Xposition Yposition Zposition Zrotation Xrotation Yrotation 
	JOINT Hips
	{
		OFFSET 4.5925 91.4895 -427.239
		CHANNELS 6 Xposition Yposition Zposition Zrotation Xrotation Yrotation 
		JOINT Spine
		{
			OFFSET 15.7357 0.0 0.0
			CHANNELS 6 Xposition Yposition Zposition Zrotation Xrotation Yrotation 
			JOINT Chest
			{
				OFFSET 8.98455 -0.406207 0.0
				CHANNELS 6 Xposition Yposition Zposition Zrotation Xrotation Yrotation 
				JOINT Neck
				{
					OFFSET 16.3773 0.0 0.0
					CHANNELS 6 Xposition Yposition Zposition Zrotation Xrotation Yrotation 
					JOINT Head
					{
						OFFSET 6.45672 0.0 0.0
						CHANNELS 6 Xposition Yposition Zposition Zrotation Xrotation Yrotation 
						End Site
						{
							OFFSET 0.0 0.0 0.0
						}
					}
				}
				JOINT Shoulder_L
				{
					OFFSET 12.9942 -0.242716 4.98039
					CHANNELS 6 Xposition Yposition Zposition Zrotation Xrotation Yrotation 
					JOINT UpperArm_L
					{
						OFFSET 5.34809 0.0 0.0
						CHANNELS 6 Xposition Yposition Zposition Zrotation Xrotation Yrotation 
						JOINT LowerArm_L
						{
							OFFSET 24.3286 1.87007e-05 0.0
							CHANNELS 6 Xposition Yposition Zposition Zrotation Xrotation Yrotation 
							JOINT Hand_L
							{
								OFFSET 22.2916 0.0 0.0
								CHANNELS 6 Xposition Yposition Zposition Zrotation Xrotation Yrotation 
								End Site
								{
									OFFSET 0.0 0.0 0.0
								}
							}
						}
					}
				}
				JOINT Shoulder_R
				{
					OFFSET 12.9945 -0.242716 -4.98039
					CHANNELS 6 Xposition Yposition Zposition Zrotation Xrotation Yrotation 
					JOINT UpperArm_R
					{
						OFFSET -5.34813 0.0 0.0
						CHANNELS 6 Xposition Yposition Zposition Zrotation Xrotation Yrotation 
						JOINT LowerArm_R
						{
							OFFSET -24.3289 0.000322201 0.0
							CHANNELS 6 Xposition Yposition Zposition Zrotation Xrotation Yrotation 
							JOINT Hand_R
							{
								OFFSET -22.2915 -0.000108084 0.0
								CHANNELS 6 Xposition Yposition Zposition Zrotation Xrotation Yrotation 
								End Site
								{
									OFFSET 0.0 0.0 0.0
								}
							}
						}
					}
				}
			}
		}
		JOINT UpperLeg_L
		{
			OFFSET -2.19248 -6.46944 0.0
			CHANNELS 6 Xposition Yposition Zposition Zrotation Xrotation Yrotation 
			JOINT LowerLeg_L
			{
				OFFSET 39.0811 0.0 -1.23785e-05
				CHANNELS 6 Xposition Yposition Zposition Zrotation Xrotation Yrotation 
				JOINT Foot_L
				{
					OFFSET 40.9854 0.0 -1.26872e-05
					CHANNELS 6 Xposition Yposition Zposition Zrotation Xrotation Yrotation 
					JOINT Toes_L
					{
						OFFSET 11.7543 0.0 0.0
						CHANNELS 6 Xposition Yposition Zposition Zrotation Xrotation Yrotation 
						End Site
						{
							OFFSET 0.0 0.0 0.0
						}
					}
				}
			}
		}
		JOINT UpperLeg_R
		{
			OFFSET -2.19251 6.46944 0.0
			CHANNELS 6 Xposition Yposition Zposition Zrotation Xrotation Yrotation 
			JOINT LowerLeg_R
			{
				OFFSET -39.0811 -0.00228153 -0.0401928
				CHANNELS 6 Xposition Yposition Zposition Zrotation Xrotation Yrotation 
				JOINT Foot_R
				{
					OFFSET -40.9854 0.0 0.0
					CHANNELS 6 Xposition Yposition Zposition Zrotation Xrotation Yrotation 
					JOINT Toes_R
					{
						OFFSET -11.7543 0.0 0.0
						CHANNELS 6 Xposition Yposition Zposition Zrotation Xrotation Yrotation 
						End Site
						{
							OFFSET 0.0 0.0 0.0
						}
					}
				}
			}
		}
	}
}
MOTION
Frames:	8
Frame Time:	0.0333333
0.000000 0.000000 0.000000 0.000000 0.000000 -0.000000 -0.023164 81.425500 -1.744350 89.374400 8.633130 10.581300 15.735700 0.000005 -0.000001 98.653100 80.026100 -99.584500 8.984550 -0.406207 -0.000000 11.991000 2.940830 -2.171550 16.377300 -0.000001 -0.000001 -2.495220 -10.394200 2.957730 6.456720 -0.000001 -0.000000 -5.043300 -16.692300 8.584790 12.994200 -0.242716 4.980390 -92.505900 7.030690 -70.326000 5.348090 -0.000007 -0.000001 -69.555800 11.827300 2.333570 24.328600 0.000019 0.000005 -2.572160 -5.730580 -24.251900 22.291600 -0.000001 0.000005 19.528800 4.997560 7.322370 12.994500 -0.242716 -4.980390 88.675800 8.213710 -80.808900 -5.348130 -0.000001 -0.000004 -64.448500 25.214600 -10.011600 -24.328900 0.000322 -0.000009 -0.947218 -2.282520 -22.521700 -22.291500 -0.000108 -0.000004 18.770600 5.424670 -3.757340 -2.192480 -6.469440 -0.000000 -175.982000 -3.443100 -19.189200 39.081100 -0.000007 -0.000012 -0.578115 0.273364 64.693900 40.985400 -0.000006 -0.000013 2.487140 6.160030 -85.561500 11.754300 -0.000000 0.000003 -0.000306 -0.002647 -16.676100 -2.192510 6.469440 -0.000001 176.990000 14.437600 164.171000 -39.081100 -0.002282 -0.040193 0.144261 -0.067378 64.473300 -40.985400 0.000008 0.000006 2.272350 -4.295560 -86.851000 -11.754300 -0.000006 -0.000006 -0.871923 -1.077200 -16.937500
0.000000 0.000000 0.000000 0.000000 0.000000 -0.000000 0.596464 83.056900 -1.205460 90.004300 6.071850 10.465200 15.735700 0.000005 -0.000001 96.600500 80.801600 -97.240600 8.984550 -0.406207 -0.000000 10.525900 2.084660 -1.471610 16.377300 -0.000001 -0.000001 -1.918130 -9.530660 3.239440 6.456720 -0.000001 -0.000000 -3.500030 -14.595800 7.984810 12.994200 -0.242716 4.980390 -92.140100 5.960150 -70.206400 5.348090 -0.000007 -0.000001 -68.619800 6.556430 1.298840 24.328600 0.000019 0.000005 -5.488810 -13.578800 -22.262300 22.291600 -0.000001 0.000005 23.500000 4.871550 9.930750 12.994500 -0.242716 -4.980390 88.662700 8.048710 -80.533800 -5.348130 -0.000001 -0.000004 -65.507400 24.669200 -10.850800 -24.328900 0.000322 -0.000009 -1.176330 -2.974700 -21.570000 -22.291500 -0.000108 -0.000004 18.452500 5.404660 -3.090300 -2.192480 -6.469440 -0.000000 -176.781000 -5.227810 -15.923300 39.081100 -0.000007 -0.000012 -0.521640 0.302659 59.878600 40.985400 -0.000006 -0.000013 2.259440 5.322020 -83.893300 11.754300 -0.000000 0.000003 -0.000293 -0.002553 -16.672700 -2.192510 6.469440 -0.000001 176.132000 12.541700 166.390000 -39.081100 -0.002282 -0.040193 0.116992 -0.065366 60.125700 -40.985400 0.000008 0.000006 2.394940 -3.225720 -84.711000 -11.754300 -0.000006 -0.000006 -0.773691 -0.952030 -17.088400
0.000000 0.000000 0.000000 0.000000 0.000000 -0.000000 1.067950 85.244100 -0.620508 90.466800 3.985470 10.123800 15.735700 0.000005 -0.000001 95.984500 81.782200 -96.046200 8.984550 -0.406207 -0.000000 8.583710 1.704830 -0.251290 16.377300 -0.000001 -0.000001 -0.576916 -8.552930 2.942910 6.456720 -0.000001 -0.000000 -2.595610 -12.730100 6.540360 12.994200 -0.242716 4.980390 -91.652200 4.429920 -69.521000 5.348090 -0.000007 -0.000001 -64.975800 -1.448950 -5.771330 24.328600 0.000019 0.000005 -3.790710 -10.050100 -20.785300 22.291600 -0.000001 0.000005 23.003800 4.818090 10.974500 12.994500 -0.242716 -4.980390 88.647800 7.530130 -79.788600 -5.348130 -0.000001 -0.000004 -66.661300 24.215400 -9.302230 -24.328900 0.000322 -0.000009 -1.096050 -2.550210 -23.254200 -22.291500 -0.000108 -0.000004 17.003100 5.432050 -4.020910 -2.192480 -6.469440 -0.000000 -177.365000 -6.703870 -12.009900 39.081100 -0.000007 -0.000012 -0.438154 0.330833 52.945900 40.985400 -0.000006 -0.000013 1.978840 4.807850 -81.091600 11.754300 -0.000000 0.000003 -0.000252 -0.002245 -16.661700 -2.192510 6.469440 -0.000001 175.158000 12.237400 169.453000 -39.081100 -0.002282 -0.040193 0.085291 -0.060263 53.706600 -40.985400 0.000008 0.000006 2.821080 -0.981283 -81.495500 -11.754300 -0.000006 -0.000006 -0.695189 -0.852348 -17.364300
0.000000 0.000000 0.000000 0.000000 0.000000 -0.000000 1.254180 87.347800 -0.275601 90.486800 2.690660 8.954040 15.735700 0.000005 -0.000001 96.155800 83.101800 -95.464700 8.984550 -0.406207 -0.000000 5.943870 1.464550 1.304720 16.377300 -0.000001 -0.000001 1.107290 -7.907830 2.494830 6.456720 -0.000001 -0.000000 -1.624020 -10.992500 4.571470 12.994200 -0.242716 4.980390 -91.050000 2.828110 -69.625600 5.348090 -0.000007 -0.000001 -59.760900 -9.917750 -16.921300 24.328600 0.000019 0.000005 -3.274310 -8.458950 -21.251500 22.291600 -0.000001 0.000005 21.340900 4.854650 10.258000 12.994500 -0.242716 -4.980390 88.660600 6.743720 -78.737600 -5.348130 -0.000001 -0.000004 -67.603700 23.750000 -6.985690 -24.328900 0.000322 -0.000009 -0.729811 -1.525270 -25.544700 -22.291500 -0.000108 -0.000004 15.511700 5.458060 -4.934630 -2.192480 -6.469440 -0.000000 -177.533000 -7.586800 -9.163450 39.081100 -0.000007 -0.000012 -0.341854 0.334353 45.636300 40.985400 -0.000006 -0.000013 1.640790 4.627800 -77.762100 11.754300 -0.000000 0.000003 -0.000212 -0.001945 -16.650800 -2.192510 6.469440 -0.000001 174.653000 13.891700 171.922000 -39.081100 -0.002282 -0.040193 0.061456 -0.054956 46.640100 -40.985400 0.000008 0.000006 3.677370 2.012580 -78.042200 -11.754300 -0.000006 -0.000006 -0.428036 -0.528818 -17.669300
0.000000 0.000000 0.000000 0.000000 0.000000 -0.000000 1.196960 88.940300 -0.161753 90.259900 1.612080 7.485840 15.735700 0.000005 -0.000001 95.681300 84.367300 -94.399400 8.984550 -0.406207 -0.000000 3.433910 1.065450 2.529210 16.377300 -0.000001 -0.000001 2.462980 -7.302590 2.487460 6.456720 -0.000001 -0.000000 -0.886651 -9.393570 3.025860 12.994200 -0.242716 4.980390 -90.319200 0.909564 -70.696300 5.348090 -0.000007 -0.000001 -53.479700 -19.217000 -29.674600 24.328600 0.000019 0.000005 -4.000200 -9.047010 -23.974900 22.291600 -0.000001 0.000005 19.042900 4.975800 7.807330 12.994500 -0.242716 -4.980390 88.678800 6.036280 -77.629000 -5.348130 -0.000001 -0.000004 -67.840100 24.099300 -5.789090 -24.328900 0.000322 -0.000009 -0.687444 -1.353210 -26.897000 -22.291500 -0.000108 -0.000004 14.864200 5.464580 -5.168740 -2.192480 -6.469440 -0.000000 -177.363000 -8.276870 -7.383920 39.081100 -0.000007 -0.000012 -0.269406 0.327684 39.426000 40.985400 -0.000006 -0.000013 1.243620 4.597800 -74.771900 11.754300 -0.000000 0.000003 -0.000164 -0.001562 -16.636800 -2.192510 6.469440 -0.000001 174.616000 16.322300 173.609000 -39.081100 -0.002282 -0.040193 0.043218 -0.046980 40.370100 -40.985400 0.000008 0.000006 4.513470 5.428940 -75.191700 -11.754300 -0.000006 -0.000006 -0.002356 -0.033083 -17.918400
0.000000 0.000000 0.000000 0.000000 0.000000 -0.000000 1.092420 89.936900 -0.270242 89.853700 0.517963 6.341330 15.735700 0.000005 -0.000001 91.618400 85.078500 -89.868800 8.984550 -0.406207 -0.000000 2.072640 0.190929 3.492380 16.377300 -0.000001 -0.000001 2.660190 -6.635010 2.754180 6.456720 -0.000001 -0.000000 -0.906302 -7.910000 2.224930 12.994200 -0.242716 4.980390 -89.375000 -2.005440 -72.662200 5.348090 -0.000007 -0.000001 -45.247900 -29.238900 -40.184500 24.328600 0.000019 0.000005 -4.909870 -9.254960 -28.106100 22.291600 -0.000001 0.000005 18.314600 5.139830 4.183320 12.994500 -0.242716 -4.980390 88.690600 5.655810 -76.942300 -5.348130 -0.000001 -0.000004 -66.804000 24.404400 -6.592400 -24.328900 0.000322 -0.000009 -0.684519 -1.308460 -27.584000 -22.291500 -0.000108 -0.000004 14.981500 5.453570 -4.768130 -2.192480 -6.469440 -0.000000 -177.131000 -8.229370 -6.421380 39.081100 -0.000007 -0.000012 -0.220580 0.312752 35.195300 40.985400 -0.000006 -0.000013 0.710295 3.842810 -72.627800 11.754300 -0.000000 0.000003 -0.000132 -0.001307 -16.627400 -2.192510 6.469440 -0.000001 174.934000 18.395200 174.755000 -39.081100 -0.002282 -0.040193 0.029086 -0.036025 35.604900 -40.985400 0.000008 0.000006 5.063810 8.480760 -73.311500 -11.754300 -0.000006 -0.000006 -0.002717 -0.037356 -18.092200
0.000000 0.000000 0.000000 0.000000 0.000000 -0.000000 1.058590 90.500800 -0.480633 89.357800 -1.222030 5.645840 15.735700 0.000005 -0.000001 85.684200 85.283400 -83.505300 8.984550 -0.406207 -0.000000 1.659980 -0.825496 4.365920 16.377300 -0.000001 -0.000001 2.322740 -5.772080 3.086010 6.456720 -0.000001 -0.000000 -1.586780 -6.543710 2.531890 12.994200 -0.242716 4.980390 -88.331900 -5.865620 -74.086900 5.348090 -0.000007 -0.000001 -34.948900 -40.352700 -45.459200 24.328600 0.000019 0.000005 -5.839790 -8.876720 -33.543400 22.291600 -0.000001 0.000005 19.279300 5.265280 1.038480 12.994500 -0.242716 -4.980390 88.559000 6.155040 -76.797000 -5.348130 -0.000001 -0.000004 -63.955000 24.079700 -8.519920 -24.328900 0.000322 -0.000009 -0.467713 -0.869361 -28.227500 -22.291500 -0.000108 -0.000004 15.436400 5.443370 -4.404300 -2.192480 -6.469440 -0.000000 -176.909000 -7.836960 -5.885150 39.081100 -0.000007 -0.000012 -0.210720 0.327815 32.733300 40.985400 -0.000006 -0.000013 0.033145 1.952330 -71.358600 11.754300 -0.000000 0.000003 -0.000132 -0.001306 -16.627300 -2.192510 6.469440 -0.000001 175.467000 19.331200 175.463000 -39.081100 -0.002282 -0.040193 0.019638 -0.025846 32.303200 -40.985400 0.000008 0.000006 5.560970 10.959800 -72.228000 -11.754300 -0.000006 -0.000006 -0.002793 -0.038239 -18.128100
0.000000 0.000000 0.000000 0.000000 0.000000 -0.000000 1.250820 90.834300 -0.747746 88.742500 -3.603510 5.144190 15.735700 0.000005 -0.000001 81.106700 85.214400 -78.552700 8.984550 -0.406207 -0.000000 1.731900 -1.613170 5.128090 16.377300 -0.000001 -0.000001 1.871820 -4.729250 2.968610 6.456720 -0.000001 -0.000000 -2.239780 -5.448330 4.488060 12.994200 -0.242716 4.980390 -86.976600 -10.202700 -73.402600 5.348090 -0.000007 -0.000001 -21.165700 -49.354300 -45.110100 24.328600 0.000019 0.000005 -3.795680 -4.906110 -37.827400 22.291600 -0.000001 0.000005 24.697900 5.345640 -1.155720 12.994500 -0.242716 -4.980390 88.194800 7.680460 -76.730700 -5.348130 -0.000001 -0.000004 -59.729500 23.359500 -10.759200 -24.328900 0.000322 -0.000009 -0.256941 -0.458184 -29.197300 -22.291500 -0.000108 -0.000004 16.538700 5.439650 -4.275350 -2.192480 -6.469440 -0.000000 -176.651000 -7.886530 -5.640370 39.081100 -0.000007 -0.000012 -0.207531 0.340078 31.393700 40.985400 -0.000006 -0.000013 -0.470913 -0.201530 -70.700200 11.754300 -0.000000 0.000003 -0.000147 -0.001430 -16.631900 -2.192510 6.469440 -0.000001 175.771000 20.312100 175.724000 -39.081100 -0.002282 -0.040193 -0.024319 0.047715 30.065000 -40.985400 0.000008 0.000006 5.223170 14.435600 -70.985000 -11.754300 -0.000006 -0.000006 -0.002846 -0.038845 -18.152800
